<svg version="1.1" id="Layer_1" xmlns="http://www.w3.org/2000/svg" xmlns:xlink="http://www.w3.org/1999/xlink" x="0px" y="0px" viewBox="0 0 229.4 96" style="enable-background:new 0 0 229.4 96;" xml:space="preserve">
 <style type="text/css">
  .st0{fill:#414042;}
	.st1{fill:#FE5000;}
 </style>
 <g>
  <g>
   <path class="st0" d="M92.2,78H80.6V17.2h11.6v22.4c1.8-2.2,6-4.4,10.4-4.4c12.2,0,19,10,19,22s-6.8,21.8-19,21.8
			c-4.4,0-8.6-2.2-10.4-4.4V78z M92.2,64c1.4,3,4.4,4.8,7.8,4.8c6.2,0,10-5,10-11.8s-3.8-11.8-10-11.8c-3.4,0-6.6,2-7.8,4.8V64z">
   </path>
   <path class="st0" d="M172.6,35.2c8.6,0,13.8,6,13.8,15.4V78h-11.6V53c0-4.4-2-7.4-6-7.4c-3,0-5.8,1.8-6.4,5.4v27h-11.6V53
			c0-4.4-1.8-7.4-5.8-7.4c-3,0-5.8,1.8-6.6,5.4v27h-11.6V36.2H138v3.4c2-2.6,6-4.4,10.6-4.4c5,0,8.8,2.2,11.2,5.4
			C162.6,37.6,166.6,35.2,172.6,35.2z">
   </path>
   <path class="st0" d="M211,35.2c10.6,0,17.2,6.2,18.4,15H218c-0.6-3.2-3.2-5.2-7-5.2c-5.4,0-8.6,4.8-8.6,12c0,7,3.2,11.8,8.6,11.8
			c3.8,0,6.2-2,7-5.2h11.4c-1.2,9-7.8,15-18.4,15c-11.8,0-20.2-9-20.2-21.8C191,44,199.2,35.2,211,35.2z">
   </path>
  </g>
  <g>
   <g>
    <path class="st1" d="M7.8,96C4,96,0,93,0,87.2V73.6C0,68.2,3.4,62,8.2,59.4l19-11.2L8.2,37C3.6,34,0,28,0,22.6V8.8C0,3,4,0,8,0
				c1.6,0,3.4,0.4,5,1.4l42.8,25.4c3,1.8,4.6,4.6,4.6,7.4c0,3-1.8,5.8-4.6,7.4l-10.2,6l10.2,6c3,1.8,4.8,4.6,4.8,7.4
				c0,3-1.8,5.8-4.8,7.4L13,94.6C11.2,95.6,9.6,96,7.8,96z M36.4,53.6L13,67.4c-1.8,1-3.6,4.2-3.6,6.2v12.2l40.6-24L36.4,53.6z
				 M9.4,10.4v12.2c0,2,1.8,5.2,3.6,6.2l23.4,13.8l13.8-8.2L9.4,10.4z">
    </path>
   </g>
  </g>
 </g>
</svg>