<?xml version="1.0" encoding="UTF-8"?>
<svg id="Layer_1" data-name="Layer 1" xmlns="http://www.w3.org/2000/svg" viewBox="0 0 990.07 990.07">
  <defs>
    <style>
      .cls-1 {
        fill: #fff;
      }
    </style>
  </defs>
  <path d="M990.07,495.04c0,273.4-221.63,495.04-495.04,495.04S0,768.44,0,495.04,221.63,0,495.04,0s495.04,221.63,495.04,495.04ZM950.25,495.04c0-251.41-203.81-455.21-455.21-455.21S39.82,243.63,39.82,495.04s203.81,455.21,455.21,455.21,455.21-203.81,455.21-455.21Z"/>
  <path class="cls-1" d="M950.25,495.04c0,251.41-203.81,455.21-455.21,455.21S39.82,746.44,39.82,495.04,243.63,39.82,495.04,39.82s455.21,203.81,455.21,455.21ZM396.04,508.54v-150c0-2.77-4.75-8.19-7.09-9.91-8.7-6.39-20.33-6.31-26.74,3.08-5.18,7.59-3.02,22.46-3.13,31.87-1.33,119.78-3.11,240.65-1.99,361.01l-1.54,3.43c-43.51-38.03-87.17-79.74-114.68-131.3-75.6-141.68-8.92-281.02,82.19-394.15,14.42-17.9,32.54-40.36,48.46-56.54,1.27-1.29,4.01-4.19,5.88-3.82,1.28.25,15.93,16.37,18.16,18.83,55.22,61.15,113.12,138.93,137.51,218.49,5.95,19.42,9.95,39.18,10.42,59.58.71,1.03,1.94.85,3.01.99,3.97.48,34.29.21,35.44-1.15-4.75-79.24-42.65-153.25-87.08-217.22-28.77-41.43-64.59-83.06-99.79-119.21-8.51-8.75-15.27-17.8-27.96-8.91-7.17,5.02-22.79,23.02-29.58,30.42-119.67,130.58-223.43,306.17-133.86,483.89,34.91,69.28,93.45,121.86,151.27,171.73,1.17,3.04,1.89,6.61,2.14,9.86,1.53,19.62-1.4,41,.19,60.81,6.9,18.1,31.41,17.84,37.55-1,1.82-19.93-1.65-42.17.18-61.82.16-1.7.08-3.38,1.15-4.85,76.59-63.68,149.26-131.27,177.39-230.61,4.72-16.66,6.84-33.66,10.44-50.56l167.06,1.08c.45,3.08-7.36,8.21-9.54,10.4-32.02,32.27-64.88,64-95.89,97.14-9.98,21.49,17.21,37.67,33.98,21.98,47.31-44.26,90.84-93.35,137.98-138.02,6.17-7.24,5.96-16.91.47-24.52l-142.5-140.5c-19.01-12.38-40.9,5.99-27.33,26.33l103.39,103.61.45,4.05c-25.83-.19-51.7.25-77.54.05-8.89-.07-18.04-.73-26.91-1.09-60.81,3.19-125.71-4.11-186.04.06-23.33,1.61-46.47,11.59-63.02,27.99l-2.49-1.5Z"/>
  <path d="M396.04,508.54l2.49,1.5c16.55-16.4,39.7-26.37,63.02-27.99,60.33-4.17,125.23,3.14,186.04-.06,8.87.36,18.02,1.02,26.91,1.09,25.84.21,51.71-.24,77.54-.05l-.45-4.05-103.39-103.61c-13.57-20.34,8.32-38.71,27.33-26.33l142.5,140.5c5.48,7.61,5.7,17.27-.47,24.52-47.14,44.67-90.67,93.76-137.98,138.02-16.77,15.69-43.96-.49-33.98-21.98,31.02-33.14,63.88-64.87,95.89-97.14,2.18-2.2,10-7.32,9.54-10.4l-167.06-1.08c-3.6,16.9-5.73,33.9-10.44,50.56-28.13,99.34-100.8,166.92-177.39,230.61-1.07,1.47-.99,3.15-1.15,4.85-1.83,19.65,1.64,41.89-.18,61.82-6.14,18.84-30.64,19.1-37.55,1-1.59-19.81,1.34-41.19-.19-60.81-.25-3.25-.97-6.82-2.14-9.86-57.83-49.86-116.36-102.44-151.27-171.73-89.56-177.72,14.2-353.31,133.86-483.89,6.79-7.41,22.4-25.4,29.58-30.42,12.7-8.89,19.45.17,27.96,8.91,35.2,36.15,71.02,77.78,99.79,119.21,44.43,63.97,82.33,137.97,87.08,217.22-1.15,1.36-31.47,1.63-35.44,1.15-1.07-.13-2.3.04-3.01-.99-.46-20.4-4.47-40.17-10.42-59.58-24.38-79.57-82.28-157.35-137.51-218.49-2.23-2.47-16.87-18.58-18.16-18.83-1.87-.37-4.61,2.53-5.88,3.82-15.92,16.18-34.04,38.64-48.46,56.54-91.12,113.13-157.79,252.47-82.19,394.15,27.51,51.56,71.17,93.27,114.68,131.3l1.54-3.43c-1.12-120.36.67-241.23,1.99-361.01.1-9.41-2.05-24.28,3.13-31.87,6.41-9.4,18.05-9.48,26.74-3.08,2.34,1.72,7.09,7.14,7.09,9.91v150ZM541.54,521.04h-76c-4.8,0-19.48,4.51-24.48,6.52-26.74,10.7-42.82,35.45-45.05,63.95-3.5,44.61.15,98.4.09,144.08,0,4.48-1.5,8.95.46,13.47,1.55-.04,8.27-5.62,9.96-7.04,59.94-50.44,123.74-122.05,135.27-202.73.45-3.15,2.76-17.32-.25-18.25Z"/>
  <path class="cls-1" d="M541.54,521.04c3.01.93.7,15.1.25,18.25-11.53,80.67-75.34,152.29-135.27,202.73-1.69,1.42-8.42,7-9.96,7.04-1.95-4.51-.46-8.99-.46-13.47.06-45.68-3.59-99.47-.09-144.08,2.23-28.49,18.32-53.25,45.05-63.95,5.01-2,19.68-6.52,24.48-6.52h76Z"/>
</svg>