<svg xmlns="http://www.w3.org/2000/svg" data-name="Layer 1" viewBox="0 0 910.43 910.43">
  <path d="M910.43 455.22c0 251.41-203.81 455.22-455.22 455.22S0 706.63 0 455.22 203.81 0 455.22 0s455.22 203.81 455.22 455.22Zm-554.21 13.5v-150c0-.76-2.45-4.82-3.16-5.84-7.26-10.31-23.18-11.96-30.67-.99-5.2 7.62-3.03 23.34-3.12 32.87-1.19 119.43-3.23 240-2 360.01l-1.54 3.43c-50.58-43.56-98.91-91.93-125.68-154.3-58.05-135.25 8.8-266.36 93.2-371.16 14.46-17.95 32.5-40.28 48.46-56.54 1.27-1.29 4.01-4.19 5.88-3.82 1.28.25 15.93 16.37 18.16 18.83 53.22 58.93 107.56 131.63 133.76 207.24 7.93 22.89 13.68 46.47 14.17 70.83.71 1.03 1.94.85 3.01.99 6.55.79 21.29.55 28.09 0 3.08-.25 7.87-.51 7.52-4.49-12.16-125.1-91.4-230.28-174.57-318.54-6.26-6.65-20.21-26.23-28.98-27.06-4.39-.41-8.56 1.49-12 4.05-7.56 5.63-21.92 22.25-29.02 29.98C176.35 236.66 72.51 413.98 166.72 593.25c35.24 67.05 91.84 117.84 148.42 166.58 1.17 3.04 1.89 6.61 2.14 9.86 1.53 19.62-1.4 41 .19 60.81 1.66 7.98 13.25 14.64 21.02 13.51 6.55-.96 15.18-7.86 16.53-14.51 3.33-16.41-1.5-43.77.18-61.82.16-1.7.08-3.38 1.15-4.85 76.54-63.86 149.22-131.12 177.39-230.61 4.72-16.66 6.84-33.66 10.44-50.56l167.06 1.08c.45 3.01-7.44 8.29-9.55 10.43-32 32.42-65.23 64.28-96.3 97.7-8.64 21.65 17.59 36.68 34.35 21.34 47.4-43.37 89.98-92.98 137.02-136.98 6.99-7.47 7.49-17.18 1.48-25.51l-142.5-140.5c-19.01-12.38-40.9 5.99-27.33 26.33 24.35 24.64 48.63 49.38 73.31 73.69 8.36 8.24 22.29 18.83 29.07 27.92.76 1.02 3.26 4.59 1.49 5.58-25.83.66-51.73.71-77.58.51-8.92-.07-18.04-.73-26.91-1.09-60.73 3.29-125.82-4.23-186.04.06-23.29 1.66-46.41 11.78-63.02 27.99l-2.49-1.5Z"/>
  <path d="m356.22 468.72 2.49 1.5c16.62-16.21 39.73-26.33 63.02-27.99 60.22-4.29 125.31 3.23 186.04-.06 8.87.36 18 1.02 26.91 1.09 25.84.2 51.75.15 77.58-.51 1.77-1-.73-4.57-1.49-5.58-6.78-9.1-20.72-19.69-29.07-27.92-24.67-24.32-48.96-49.05-73.31-73.69-13.57-20.34 8.32-38.71 27.33-26.33l142.5 140.5c6 8.32 5.51 18.03-1.48 25.51-47.04 44-89.62 93.61-137.02 136.98-16.76 15.34-42.98.3-34.35-21.34 31.08-33.42 64.3-65.27 96.3-97.7 2.11-2.14 10-7.42 9.55-10.43l-167.06-1.08c-3.6 16.9-5.73 33.9-10.44 50.56-28.18 99.48-100.85 166.75-177.39 230.61-1.07 1.47-.99 3.15-1.15 4.85-1.68 18.05 3.15 45.41-.18 61.82-1.35 6.65-9.98 13.55-16.53 14.51-7.77 1.13-19.35-5.53-21.02-13.51-1.59-19.81 1.34-41.19-.19-60.81-.25-3.25-.97-6.82-2.14-9.86-56.58-48.74-113.18-99.54-148.42-166.58-94.21-179.27 9.62-356.58 131.01-489.04 7.09-7.74 21.45-24.36 29.02-29.98 3.44-2.56 7.62-4.46 12-4.05 8.77.83 22.72 20.41 28.98 27.06 83.17 88.26 162.41 193.44 174.57 318.54.35 3.98-4.44 4.24-7.52 4.49-6.8.56-21.54.8-28.09 0-1.07-.13-2.3.04-3.01-.99-.49-24.37-6.23-47.94-14.17-70.83-26.2-75.61-80.54-148.31-133.76-207.24-2.23-2.47-16.87-18.58-18.16-18.83-1.87-.37-4.61 2.53-5.88 3.82-15.96 16.26-34 38.59-48.46 56.54-84.4 104.79-151.24 235.91-93.2 371.16 26.77 62.37 75.11 110.74 125.68 154.3l1.54-3.43c-1.23-120.01.81-240.58 2-360.01.09-9.53-2.08-25.25 3.12-32.87 7.49-10.97 23.4-9.31 30.67.99.72 1.02 3.16 5.07 3.16 5.84v150Zm69.5 12.5c-38.78 5.29-66.4 30.5-69.54 70.46-3.53 45.08.6 97.94.08 144.08-.02 1.83-1.97 13.06.48 13.46 3.52-1.67 6.96-4.55 9.95-7.03 59.88-49.72 123.85-122.78 135.27-202.73.77-5.39 2.67-13.9-.25-18.25h-76Z" style="fill:#fff"/>
  <path d="M425.72 481.22h76c2.92 4.35 1.02 12.85.25 18.25-11.43 79.95-75.39 153.01-135.27 202.73-2.99 2.48-6.43 5.36-9.95 7.03-2.45-.4-.5-11.64-.48-13.46.52-46.14-3.62-99-.08-144.08 3.13-39.97 30.76-65.17 69.54-70.46Z"/>
</svg>
