<svg version="1.1" id="Layer_1" xmlns="http://www.w3.org/2000/svg" xmlns:xlink="http://www.w3.org/1999/xlink" x="0px" y="0px" viewBox="-861 442 373.5 196.1" style="enable-background:new -861 442 373.5 196.1;" xml:space="preserve">
 <style type="text/css">
  .st0{fill:#E31837;}
	.st1{fill:#012169;}
 </style>
 <title>
  Group 5
 </title>
 <desc>
  Created with Sketch.
 </desc>
 <g id="Master-9.26">
  <g id="GBAM_mHP_9.26.19-search" transform="translate(-18.000000, -76.000000)">
   <g id="Group-5" transform="translate(18.000000, 76.000000)">
    <path id="Fill-4" class="st0" d="M-679.8,638.1c60.9-48.8,145.8-96.3,192.3-113.3c-7.2-4.4-18.5-10.6-31.1-17.4
				c-60,18.7-130.2,60.3-193.1,107.3C-700.9,622-689.8,630.1-679.8,638.1z">
    </path>
    <path id="Fill-5" class="st1" d="M-711.6,508.8c-7.9-3.6-16.4-7.5-23.2-10.7c-20.2,10.5-46.3,26.6-79.5,51.6
				c7.2,4,14.8,8.9,23,13.8C-765.8,543.4-740,524.4-711.6,508.8z">
    </path>
    <path id="Fill-6" class="st0" d="M-646.2,486.7c-10.4-6.3-49.4-20-76.1-26c-7.9,3-19,7.1-26.7,10.2c9.5,2.6,45.7,11.9,76.6,27.1
				C-664.2,494.4-653.3,489.8-646.2,486.7z">
    </path>
    <path id="Fill-7" class="st1" d="M-780.5,470c-30.8,17.4-63,40.7-80.5,54c6.2,3.3,12.6,6.3,21.3,11.4
				c38.8-31.4,69.3-50.4,81.5-56.8C-766.9,475.2-775.2,472.4-780.5,470z">
    </path>
    <path id="Fill-8" class="st0" d="M-622.3,470c7.1-2.3,15.6-4.4,22.8-6.2c-21-8-47.2-16.5-70.5-21.8c-3.7,0.9-14.9,3.7-22.8,5.9
				C-684.8,449.7-658.2,455.3-622.3,470z">
    </path>
    <path id="Fill-9" class="st0" d="M-758.3,573.8c9.7,5,19.7,11.9,29.3,17.6c63.4-44.7,126-79.4,194.8-99
				c-9.6-4.4-18-8.3-28.6-13.1C-604.1,488.9-674.3,514.6-758.3,573.8z">
    </path>
   </g>
  </g>
 </g>
</svg>