<svg version="1.1" id="Layer_1" xmlns="http://www.w3.org/2000/svg" xmlns:xlink="http://www.w3.org/1999/xlink" x="0px" y="0px" viewBox="-106.6 421 220 206.6" style="enable-background:new -106.6 421 220 206.6;" xml:space="preserve">
 <style type="text/css">
  .st0{fill:#012169;}
 </style>
 <title>
  bofa_merrill_lo1_rgb_h
 </title>
 <g>
  <path class="st0" d="M98.9,620.3c0-4,3.2-7.2,7.2-7.2s7.2,3.2,7.2,7.2c0,4-3.2,7.2-7.2,7.2S98.9,624.3,98.9,620.3 M100.3,620.3
		c-0.1,3.3,2.4,6,5.6,6.2c3.3,0.1,6-2.4,6.2-5.6c0.1-3.3-2.4-6-5.6-6.2c-0.1,0-0.2,0-0.2,0C103,614.6,100.4,617.2,100.3,620.3">
  </path>
  <path class="st0" d="M109.8,624.5h-1.4l-2.4-3.7h-1.2v3.7h-1.2v-7.9h3.5c0.7-0.1,1.4,0.1,2,0.4c0.6,0.4,0.9,1,0.9,1.7
		c0,1.2-0.9,2.2-2.2,2.2c-0.1,0-0.3,0-0.4,0L109.8,624.5z M106,619.6c1.2,0,2.7,0.2,2.7-1.2c0-1-0.9-1.1-2-1.1h-2v2.4L106,619.6
		L106,619.6z">
  </path>
  <path class="st0" d="M-45.2,497.1c-5-3.3-11.5-3.3-16.5,0l1.3,2.7c4.5-0.7,9.1-0.7,13.7,0L-45.2,497.1z">
  </path>
  <path class="st0" d="M84.7,566.1c-5.5-7.8-7.2-15.3-15.1-23.7c11.1-1.7,18.6-6.6,22.3-14.7c3.4-7.1,3.3-15.3-0.3-22.3
		C83.7,490,61.8,483,44.8,479.8c-18.8-3.5-26.6-8.1-29.5-17.4c-0.7-3-0.1-6.1,1.6-8.7c4.8-6.4,18.7-5.7,19.8-5.7
		c4.3,0.2,7.2,2.9,11.4,7.1C52.8,460,58.8,466,69.2,466c6.4,0,13.8-2.4,21.7-10.5c4.7-5.3,8.6-11.2,11.8-17.5H35.1
		c-12.6,0-21.5,3.3-26.4,9.8c-3.6,5.1-4.7,11.5-3.2,17.5c4.8,15.4,18.4,20.9,37.3,24.4c20.9,3.9,35,11.1,39.7,20.2
		c2.2,4.2,2.2,9.2,0,13.5c-3.4,7.4-12.7,10.5-28.3,9.4c-18.1-1.4-35-9.3-47.6-22.3c-8.3-9.6-15.5-20.2-21.5-31.4
		c-0.3-0.5-2-3.6-4.1-7.5l10.5-0.2c-0.8-4.1-2.6-7.9-5.2-11.1c3.7-4.5,5.8-10.2,5.8-16.1c-0.6-23.7-24.7-23.3-32.8-23
		c5.6,8.8,8,16.9,5.3,18.7c-2.7,1.8-8.8-2.7-19-2.7s-16.3,4.4-19,2.7c-2.7-1.7-0.3-9.9,5.3-18.7c-8.2-0.3-32.2-0.6-32.8,23
		c0.1,6.1,2.4,11.9,6.3,16.5c-3.2,2.7-5.1,6.6-5.4,10.7l8.9,1c-4.6,13.6-10.7,32.8-14.1,45.4c-3.8,13.4-0.9,27.7,7.9,38.5
		c-2.8,5.4-3.5,11.7-2.1,17.6c7.6,33.3,3.7,37,0.8,53.6h29.8c0.5-3.4,3.6-26.6,4.1-40.5c6.5,5.9,13.2,11.7,18.7,16.3
		c5.8,5.2,13.4,8,21.1,7.7c6.8-0.1,13.6-0.7,20.4-1.7c0,0,0.8-11.1,1.5-20.8l5.7-0.5l0.6,7.2l9.4-0.8c-4.2,16.2-12.9,27-16.6,33.1
		h32.5c4.6-7.6,8.6-15.5,12.1-23.7c6.7,2.8,14.5,1.6,20.1-3.1c-1.5,11.4-8.2,23.4-9.7,26.8H88c-0.3-5.6-2-13.1,10.8-50.5
		C93.3,574.5,88.5,570.8,84.7,566.1L84.7,566.1z M84.1,448.1c-3.7,3.9-8.9,7.9-14.9,7.9s-9.7-3.5-14.1-7.9H84.1L84.1,448.1z
		 M-77.5,617.5h-8.6c5.2-23.6-5.9-46.7-3.3-53.1c2.4,2.2,13.2,12.1,15,13.6C-74,585.3-75.8,604-77.5,617.5L-77.5,617.5z M23,617.5
		h-8.6c4.1-7.5,7.2-15.6,9.1-24l5.6-0.5c0.9,1.7,2.1,3.4,3.4,4.8C29.7,604.6,26.6,611.1,23,617.5L23,617.5z M46.5,595.1
		c-4.4-1.1-8-4.3-9.4-8.6c2.8,0.8,15.4,3.1,18.9,4.8C53.9,594.4,50.2,595.8,46.5,595.1L46.5,595.1z M77.9,617.5H66.8
		c2.4-6.7,5.4-16.7,4-23.7c-2.3-10.8-13.8-13.2-24-15.3c-5.8-1.2-12.3-2.6-16.4-5c-7-4.2-7.4-14.5-4.8-20.4H15
		c-3.6,15.6,4.1,26,11.2,29.5v0.6l-13.5,1.2l-0.6-7.2l-25,2c1.1-3.9,1.6-8,1.7-12.1h-10.1c0,9.4-4.4,19.6-8.1,23.6l16.5-1.3
		c-0.3,4.5-0.6,8.3-0.8,11c-5.3,0.7-10.7,0.8-16,0.3c-6.2-1.2-11.3-5.4-13.8-11.2c-2.8-6.9-1.2-15.5,4.6-25l-7.7-6.8
		c-6.2,9.7-8.3,17.9-8.4,24.4c-6.2-5.5-25.6-23.3-28.1-25.5C-94.7,546-98.8,533.8-95.1,520c3.8-14,11.1-36.9,15.6-49.9
		c2.2-6.6,2.4-7.2,3.3-9.5c-8-1.7-13.9-8.4-14.5-16.6c0-6.3,4.7-12.2,9.5-12.8c-1.8,3.9-2,8.4-0.6,12.5c1.7,3.7,5.3,6,9.3,6.1
		c3.4,0,9.5-2.8,18.2-2.8c8.6,0,14.7,2.8,18.2,2.8c4-0.1,7.6-2.5,9.3-6.1c1.4-4.1,1.2-8.6-0.6-12.5c4.8,0.7,9.5,6.6,9.5,12.8
		c0,5.7-3.9,14.1-12.6,14.5h-4.3c-14.5,0.3-15.2,11.8-12.5,23c0.5,2,0.3,4-0.4,5.9h-18.7l3.2,6.5c6.6-1.3,13.4-1.3,20,0l3.8-6.5
		l-1.5-5.3l9.4-13.6c2.8,5.6,7.8,14.6,8.1,15.1c6.6,12.1,9.5,23.3,8.6,33.2c-0.3,3.5-1.1,6.9-2.4,10.1l7.8,7
		c3.4-6.6,5.1-14.1,4.8-21.5c1.4,1.8,2.9,3.4,4.3,5c13.1,13.6,30.4,22.3,49.1,25c13.6,2.2,18.5,13,22.1,19.8
		c5.4,10.1,8,13.5,16,19.5C85.7,584.8,79.3,604.6,77.9,617.5L77.9,617.5z M-35.6,463.5c0.6,4.4-2.5,8.4-6.9,9
		c-0.5,0.1-0.9,0.1-1.4,0.1c-0.7-4.4,2.4-8.5,6.8-9.1c0.6-0.1,1.2-0.1,1.8-0.1L-35.6,463.5z">
  </path>
  <path class="st0" d="M-62.1,473.2c-5.1,0.2-9.5-3.7-9.7-8.8c0-0.6,0-1.1,0.1-1.7c5.1-0.2,9.5,3.7,9.7,8.8
		C-62,472.1-62.1,472.7-62.1,473.2z">
  </path>
 </g>
</svg>